<svg xmlns="http://www.w3.org/2000/svg" width="24" height="24" viewBox="0 0 24 24"><path d="M0 0h24v24H0z" fill="none"/><path d="M973-65.862a2.362 2.362 0 0 1 2.362 2.362A2.362 2.362 0 0 1 973-61.138a2.362 2.362 0 0 1-2.362-2.362A2.362 2.362 0 0 1 973-65.862zm0 10.125c3.341 0 6.862 1.642 6.862 2.362v1.237h-13.724v-1.237c0-.725 3.521-2.362 6.862-2.362zM973-68a4.5 4.5 0 0 0-4.5 4.5c0 1.947 3.259 4.327 3.259 4.327A6.317 6.317 0 0 0 973-59a4.5 4.5 0 0 0 4.5-4.5A4.5 4.5 0 0 0 973-68zm0 10.125c-3 0-9 1.507-9 4.5V-50h18v-3.375c0-2.993-6-4.5-9-4.5z" transform="translate(-961 71)" fill="#fff"/></svg>