<svg xmlns="http://www.w3.org/2000/svg" width="145.32" height="32" viewBox="0 0 145 32"><path fill="#FFF" d="M27.8 19.23L27.8 19.23c-3.13.29-5.9-.98-7.74-2.97 5.28-2.82 8.69-7.37 7.86-8.55-.96-1.37-6.98.96-11.11 4.76C12.68 8.66 6.66 6.33 5.69 7.7c-.84 1.2 2.6 5.74 7.86 8.55-1.84 1.98-4.61 3.26-7.75 2.97-.23-.02-.33.25-.14.4.99.79 2.22 1.22 3.46 1.23-.41 1.17-.44 2.47-.03 3.67.08.23.37.22.42 0 .84-3.17 3.03-5.58 6.78-6.71.17-.05.34-.1.5-.16.17.06.33.11.5.16 3.75 1.13 5.94 3.55 6.78 6.71.06.22.35.23.43 0 .41-1.21.38-2.5-.03-3.67 1.24-.01 2.47-.44 3.46-1.23C28.13 19.48 28.02 19.2 27.8 19.23zM24.31 9.42c.3-.21.71-.13.91.16.21.3.13.7-.16.91-.3.21-.7.14-.91-.16C23.94 10.04 24.01 9.63 24.31 9.42zM9.46 10.34c-.21.3-.62.37-.91.16-.3-.21-.37-.62-.16-.91C8.59 9.29 9 9.22 9.3 9.42 9.59 9.63 9.66 10.04 9.46 10.34zM48.56 14.52L40.18 14.52 40.18 9.02 36.21 9.02 36.21 22.98 40.18 22.98 40.18 17.3 48.56 17.3 48.56 22.98 52.56 22.98 52.56 9.02 48.56 9.02zM61.03 17.2L70.83 17.2 70.83 14.6 61.03 14.6 61.03 11.81 71.16 11.81 71.16 9.02 57.06 9.02 57.06 22.98 71.3 22.98 71.3 20.19 61.03 20.19zM90.65 13.44c0-2.12-1.3-4.43-5.78-4.43h-9.52v13.96h3.97v-4.94h4.03l3.32 4.94h4.48l-3.64-5.39C89.87 16.83 90.65 15 90.65 13.44zM83.97 15.51h-4.64v-3.84h4.64c1.91 0 2.48.92 2.48 1.89C86.44 14.54 85.87 15.51 83.97 15.51zM94.55 9.02H98.52V22.98H94.55zM115.61 18.23L107.18 9.02 102.93 9.02 102.93 22.98 106.53 22.98 106.53 13.7 115.26 22.98 119.21 22.98 119.21 9.02 115.61 9.02zM131.13 15.14v2.78h4.76v2c-1.07.46-2.45.69-4.12.69-1.8 0-3.17-.4-4.09-1.18-.91-.78-1.37-1.94-1.37-3.47 0-1.49.44-2.54 1.3-3.34.87-.8 2.11-1.2 3.7-1.2 1.08 0 1.96.18 2.62.5 1.12.55 1.45 1.65 1.45 1.65l3.79-.41c0 0-.45-2.18-2.76-3.5-1.32-.76-3.01-1.14-5.02-1.14-1.83 0-3.45.32-4.8.94-1.36.63-2.41 1.52-3.12 2.66-.71 1.14-1.08 2.37-1.08 3.89 0 2.34.84 4.19 2.5 5.51 1.65 1.31 3.96 1.97 6.87 1.97 1.44 0 2.79-.17 4.13-.51 2.19-.55 3.52-1.5 3.52-1.5v-6.36H131.13z" class="st0"/></svg>